<svg xmlns="http://www.w3.org/2000/svg" viewBox="0 0 16 16">
  <defs id="defs3051">
    <style type="text/css" id="current-color-scheme">
      .ColorScheme-Text {
        color:#232629;
      }
      </style>
  </defs>
 <path 
     style="fill:currentColor;fill-opacity:1;stroke:none" 
     d="M 8 1 C 7.26 1 6.52 1.3 5.95 1.85 L 5.3 2.5 L 6.88 4.14 A 1.5 1.5 0 0 1 7.5 4 A 1.5 1.5 0 0 1 9 5.5 A 1.5 1.5 0 0 1 8.7 6.1 L 10.9 8.14 A 1.5 1.5 0 0 1 11.5 8 A 1.5 1.5 0 0 1 13 9.5 A 1.5 1.5 0 0 1 11.5 11 A 1.5 1.5 0 0 1 10 9.5 A 1.5 1.5 0 0 1 10.16 8.8 L 8.17 6.85 A 1.5 1.5 0 0 1 8 6.9 L 8 11.1 A 1.5 1.5 0 0 1 9 12.5 A 1.5 1.5 0 0 1 7.5 14 A 1.5 1.5 0 0 1 6 12.5 A 1.5 1.5 0 0 1 7 11.1 L 7 6.9 A 1.5 1.5 0 0 1 6 5.5 A 1.5 1.5 0 0 1 6.16 4.8 L 4.56 3.24 L 1.85 5.95 C 0.7 7.1 0.7 8.9 1.85 10.05 L 5.95 14.15 C 7.1 15.3 8.9 15.3 10.05 14.15 L 14.15 10.05 C 15.3 8.9 15.3 7.1 14.15 5.92 L 10.05 1.85 C 9.5 1.3 8.74 1 8 1 z "
	 class="ColorScheme-Text"
     />
</svg>
